<svg xmlns="http://www.w3.org/2000/svg" viewBox="0 0 1440 320"><path fill="#f45044" fill-opacity="1" d="M0,160L18.5,181.3C36.9,203,74,245,111,240C147.7,235,185,181,222,154.7C258.5,128,295,128,332,149.3C369.2,171,406,213,443,229.3C480,245,517,235,554,218.7C590.8,203,628,181,665,197.3C701.5,213,738,267,775,272C812.3,277,849,235,886,234.7C923.1,235,960,277,997,293.3C1033.8,309,1071,299,1108,282.7C1144.6,267,1182,245,1218,250.7C1255.4,256,1292,288,1329,277.3C1366.2,267,1403,213,1422,186.7L1440,160L1440,320L1421.5,320C1403.1,320,1366,320,1329,320C1292.3,320,1255,320,1218,320C1181.5,320,1145,320,1108,320C1070.8,320,1034,320,997,320C960,320,923,320,886,320C849.2,320,812,320,775,320C738.5,320,702,320,665,320C627.7,320,591,320,554,320C516.9,320,480,320,443,320C406.2,320,369,320,332,320C295.4,320,258,320,222,320C184.6,320,148,320,111,320C73.8,320,37,320,18,320L0,320Z"></path></svg>