<svg id="visual" viewBox="0 0 540 960" width="540" height="960" xmlns="http://www.w3.org/2000/svg" xmlns:xlink="http://www.w3.org/1999/xlink" version="1.1"><g transform="translate(262.91032913907026 457.3871479466877)"><path d="M131 -184.2C157.7 -160.8 159.1 -106.5 186.2 -53.4C213.2 -0.3 265.9 51.6 257.9 86.1C249.8 120.5 181 137.5 127.9 157.9C74.8 178.3 37.4 202.2 -14.4 221.9C-66.1 241.7 -132.3 257.4 -176.3 234C-220.4 210.7 -242.4 148.3 -244.4 91.4C-246.3 34.5 -228.3 -16.9 -208.4 -64.5C-188.5 -112.1 -166.8 -156 -131.8 -176.6C-96.8 -197.2 -48.4 -194.6 1.9 -197.2C52.1 -199.7 104.2 -207.5 131 -184.2" fill="#f85a4f"></path></g></svg>