<svg id="visual" viewBox="0 0 540 960" width="540" height="960" xmlns="http://www.w3.org/2000/svg" xmlns:xlink="http://www.w3.org/1999/xlink" version="1.1"><g><g transform="translate(246 433)"><path d="M0 -112.6L72.4 -86.3L110.9 -19.6L97.5 56.3L38.5 105.8L-38.5 105.8L-97.5 56.3L-110.9 -19.6L-72.4 -86.3Z" fill="#f86568"></path></g><g transform="translate(468 825)"><path d="M0 -95L61.1 -72.8L93.6 -16.5L82.3 47.5L32.5 89.3L-32.5 89.3L-82.3 47.5L-93.6 -16.5L-61.1 -72.8Z" fill="#f86568"></path></g><g transform="translate(76 702)"><path d="M0 -75L48.2 -57.5L73.9 -13L65 37.5L25.7 70.5L-25.7 70.5L-65 37.5L-73.9 -13L-48.2 -57.5Z" fill="#f86568"></path></g></g></svg>