<svg id="visual" viewBox="0 0 540 960" width="540" height="960" xmlns="http://www.w3.org/2000/svg" xmlns:xlink="http://www.w3.org/1999/xlink" version="1.1"><path d="M0 743L12.8 731.5C25.7 720 51.3 697 77 697C102.7 697 128.3 720 154 733.7C179.7 747.3 205.3 751.7 231.2 733.3C257 715 283 674 308.8 681.8C334.7 689.7 360.3 746.3 386 766C411.7 785.7 437.3 768.3 463 762.5C488.7 756.7 514.3 762.3 527.2 765.2L540 768L540 961L527.2 961C514.3 961 488.7 961 463 961C437.3 961 411.7 961 386 961C360.3 961 334.7 961 308.8 961C283 961 257 961 231.2 961C205.3 961 179.7 961 154 961C128.3 961 102.7 961 77 961C51.3 961 25.7 961 12.8 961L0 961Z" fill="#0066FF" stroke-linecap="round" stroke-linejoin="miter"></path></svg>